<svg width="66" height="66" viewBox="0 0 66 66" fill="none" xmlns="http://www.w3.org/2000/svg">
<path d="M0 33C0 14.7746 14.7746 0 33 0C51.2254 0 66 14.7746 66 33C66 51.2254 51.2254 66 33 66C14.7746 66 0 51.2254 0 33Z" fill="#0F52BA"/>
<path d="M33 41.5H42" stroke="#FDFDFD" stroke-width="1.4" stroke-linecap="round" stroke-linejoin="round"/>
<path d="M37.5 25.1169C37.8978 24.7219 38.4374 24.5 39 24.5C39.2786 24.5 39.5544 24.5545 39.8118 24.6603C40.0692 24.7662 40.303 24.9213 40.5 25.1169C40.697 25.3125 40.8532 25.5447 40.9598 25.8002C41.0665 26.0558 41.1213 26.3297 41.1213 26.6063C41.1213 26.8829 41.0665 27.1568 40.9598 27.4123C40.8532 27.6679 40.697 27.9001 40.5 28.0957L28 40.5071L24 41.5L25 37.5283L37.5 25.1169Z" stroke="#FDFDFD" stroke-width="1.4" stroke-linecap="round" stroke-linejoin="round"/>
</svg>
