<svg width="52" height="52" viewBox="0 0 52 52" fill="none" xmlns="http://www.w3.org/2000/svg">
<path d="M26 52C40.3594 52 52 40.3594 52 26C52 11.6406 40.3594 0 26 0C11.6406 0 0 11.6406 0 26C0 40.3594 11.6406 52 26 52Z" fill="#5D19FC"/>
<path d="M13.2812 30H7.46875V18.7969H8.78125V28.8125H13.2812V30ZM18.1719 30.1875C16.9896 30.1875 16.0443 29.8151 15.3359 29.0703C14.6328 28.3203 14.2812 27.3281 14.2812 26.0938C14.2812 24.75 14.6484 23.7005 15.3828 22.9453C16.1172 22.1901 17.1094 21.8125 18.3594 21.8125C19.5521 21.8125 20.4818 22.1797 21.1484 22.9141C21.8203 23.6484 22.1562 24.6667 22.1562 25.9688C22.1562 27.2448 21.7943 28.2682 21.0703 29.0391C20.3516 29.8047 19.3854 30.1875 18.1719 30.1875ZM18.2656 22.8906C17.4427 22.8906 16.7917 23.1719 16.3125 23.7344C15.8333 24.2917 15.5938 25.0625 15.5938 26.0469C15.5938 26.9948 15.8359 27.7422 16.3203 28.2891C16.8047 28.8359 17.4531 29.1094 18.2656 29.1094C19.0938 29.1094 19.7292 28.8411 20.1719 28.3047C20.6198 27.7682 20.8438 27.0052 20.8438 26.0156C20.8438 25.0156 20.6198 24.2448 20.1719 23.7031C19.7292 23.1615 19.0938 22.8906 18.2656 22.8906ZM31.0312 29.3594C31.0312 32.2969 29.625 33.7656 26.8125 33.7656C25.8229 33.7656 24.9583 33.5781 24.2188 33.2031V31.9219C25.1198 32.4219 25.9792 32.6719 26.7969 32.6719C28.7656 32.6719 29.75 31.625 29.75 29.5312V28.6562H29.7188C29.1094 29.6771 28.1927 30.1875 26.9688 30.1875C25.974 30.1875 25.1719 29.8333 24.5625 29.125C23.9583 28.4115 23.6562 27.4557 23.6562 26.2578C23.6562 24.8984 23.9818 23.8177 24.6328 23.0156C25.2891 22.2135 26.1849 21.8125 27.3203 21.8125C28.3984 21.8125 29.1979 22.2448 29.7188 23.1094H29.75V22H31.0312V29.3594ZM29.75 26.3828V25.2031C29.75 24.5677 29.5339 24.0234 29.1016 23.5703C28.6745 23.1172 28.1406 22.8906 27.5 22.8906C26.7083 22.8906 26.0885 23.1797 25.6406 23.7578C25.1927 24.3307 24.9688 25.1354 24.9688 26.1719C24.9688 27.0625 25.1823 27.776 25.6094 28.3125C26.0417 28.8438 26.612 29.1094 27.3203 29.1094C28.0391 29.1094 28.6224 28.8542 29.0703 28.3438C29.5234 27.8333 29.75 27.1797 29.75 26.3828ZM34.2812 19.9688C34.0521 19.9688 33.8568 19.8906 33.6953 19.7344C33.5339 19.5781 33.4531 19.3802 33.4531 19.1406C33.4531 18.901 33.5339 18.7031 33.6953 18.5469C33.8568 18.3854 34.0521 18.3047 34.2812 18.3047C34.5156 18.3047 34.7135 18.3854 34.875 18.5469C35.0417 18.7031 35.125 18.901 35.125 19.1406C35.125 19.3698 35.0417 19.5651 34.875 19.7266C34.7135 19.888 34.5156 19.9688 34.2812 19.9688ZM34.9062 30H33.625V22H34.9062V30ZM44.1406 30H42.8594V25.4375C42.8594 23.7396 42.2396 22.8906 41 22.8906C40.3594 22.8906 39.8281 23.1328 39.4062 23.6172C38.9896 24.0964 38.7812 24.7031 38.7812 25.4375V30H37.5V22H38.7812V23.3281H38.8125C39.4167 22.3177 40.2917 21.8125 41.4375 21.8125C42.3125 21.8125 42.9818 22.0964 43.4453 22.6641C43.9089 23.2266 44.1406 24.0417 44.1406 25.1094V30Z" fill="white"/>
</svg>
