<svg width="24" height="24" viewBox="0 0 24 24" fill="none" xmlns="http://www.w3.org/2000/svg">
<path d="M12 15.9999C12.5523 15.9999 13 15.5522 13 14.9999C13 14.4476 12.5523 13.9999 12 13.9999C11.4477 13.9999 11 14.4476 11 14.9999C11 15.5522 11.4477 15.9999 12 15.9999Z" fill="#CECECE"/>
<path d="M17 7.99988H16V6.10988C16 5.04901 15.5786 4.0316 14.8284 3.28145C14.0783 2.53131 13.0609 2.10988 12 2.10988C10.9391 2.10988 9.92172 2.53131 9.17157 3.28145C8.42143 4.0316 8 5.04901 8 6.10988V7.99988H7C6.20435 7.99988 5.44129 8.31595 4.87868 8.87856C4.31607 9.44117 4 10.2042 4 10.9999V18.9999C4 19.7955 4.31607 20.5586 4.87868 21.1212C5.44129 21.6838 6.20435 21.9999 7 21.9999H17C17.7956 21.9999 18.5587 21.6838 19.1213 21.1212C19.6839 20.5586 20 19.7955 20 18.9999V10.9999C20 10.2042 19.6839 9.44117 19.1213 8.87856C18.5587 8.31595 17.7956 7.99988 17 7.99988ZM10 6.10988C10 5.57945 10.2107 5.07074 10.5858 4.69567C10.9609 4.32059 11.4696 4.10988 12 4.10988C12.5304 4.10988 13.0391 4.32059 13.4142 4.69567C13.7893 5.07074 14 5.57945 14 6.10988V7.99988H10V6.10988ZM12 17.9999C11.4067 17.9999 10.8266 17.8239 10.3333 17.4943C9.83994 17.1646 9.45542 16.6961 9.22836 16.1479C9.0013 15.5998 8.94189 14.9966 9.05764 14.4146C9.1734 13.8327 9.45912 13.2981 9.87868 12.8786C10.2982 12.459 10.8328 12.1733 11.4147 12.0575C11.9967 11.9418 12.5999 12.0012 13.1481 12.2282C13.6962 12.4553 14.1648 12.8398 14.4944 13.3332C14.8241 13.8265 15 14.4065 15 14.9999C15 15.7955 14.6839 16.5586 14.1213 17.1212C13.5587 17.6838 12.7956 17.9999 12 17.9999Z" fill="#CECECE"/>
</svg>
