<svg width="52" height="52" viewBox="0 0 52 52" fill="none" xmlns="http://www.w3.org/2000/svg">
<path d="M26 52C40.3594 52 52 40.3594 52 26C52 11.6406 40.3594 0 26 0C11.6406 0 0 11.6406 0 26C0 40.3594 11.6406 52 26 52Z" fill="#5D19FC"/>
<path d="M16.5 31H14.9375L13.0625 27.8594C12.8906 27.5677 12.724 27.3203 12.5625 27.1172C12.401 26.9089 12.2344 26.7396 12.0625 26.6094C11.8958 26.4792 11.7135 26.3854 11.5156 26.3281C11.3229 26.2656 11.1042 26.2344 10.8594 26.2344H9.78125V31H8.46875V19.7969H11.8125C12.3021 19.7969 12.7526 19.8594 13.1641 19.9844C13.5807 20.1042 13.9401 20.2891 14.2422 20.5391C14.5495 20.7891 14.7891 21.1016 14.9609 21.4766C15.1328 21.8464 15.2188 22.2812 15.2188 22.7812C15.2188 23.1719 15.1589 23.5312 15.0391 23.8594C14.9245 24.1823 14.7578 24.4714 14.5391 24.7266C14.3255 24.9818 14.0651 25.2005 13.7578 25.3828C13.4557 25.5599 13.1146 25.6979 12.7344 25.7969V25.8281C12.9219 25.9115 13.0833 26.0078 13.2188 26.1172C13.3594 26.2214 13.4922 26.3464 13.6172 26.4922C13.7422 26.638 13.8646 26.8047 13.9844 26.9922C14.1094 27.1745 14.2474 27.388 14.3984 27.6328L16.5 31ZM9.78125 20.9844V25.0469H11.5625C11.8906 25.0469 12.1927 24.9974 12.4688 24.8984C12.75 24.7995 12.9922 24.6589 13.1953 24.4766C13.3984 24.2891 13.5573 24.0625 13.6719 23.7969C13.7865 23.526 13.8438 23.224 13.8438 22.8906C13.8438 22.2917 13.6484 21.8255 13.2578 21.4922C12.8724 21.1536 12.3125 20.9844 11.5781 20.9844H9.78125ZM23.8359 27.3203H18.1875C18.2083 28.2109 18.4479 28.8984 18.9062 29.3828C19.3646 29.8672 19.9948 30.1094 20.7969 30.1094C21.6979 30.1094 22.526 29.8125 23.2812 29.2188V30.4219C22.5781 30.9323 21.6484 31.1875 20.4922 31.1875C19.362 31.1875 18.474 30.8255 17.8281 30.1016C17.1823 29.3724 16.8594 28.349 16.8594 27.0312C16.8594 25.7865 17.2109 24.7734 17.9141 23.9922C18.6224 23.2057 19.5 22.8125 20.5469 22.8125C21.5938 22.8125 22.4036 23.151 22.9766 23.8281C23.5495 24.5052 23.8359 25.4453 23.8359 26.6484V27.3203ZM22.5234 26.2344C22.5182 25.4948 22.3385 24.9193 21.9844 24.5078C21.6354 24.0964 21.1484 23.8906 20.5234 23.8906C19.9193 23.8906 19.4062 24.1068 18.9844 24.5391C18.5625 24.9714 18.3021 25.5365 18.2031 26.2344H22.5234ZM25.2969 30.7109V29.3359C25.9948 29.8516 26.763 30.1094 27.6016 30.1094C28.7266 30.1094 29.2891 29.7344 29.2891 28.9844C29.2891 28.7708 29.2396 28.5911 29.1406 28.4453C29.0469 28.2943 28.9167 28.1615 28.75 28.0469C28.5885 27.9323 28.3958 27.8307 28.1719 27.7422C27.9531 27.6484 27.7161 27.5521 27.4609 27.4531C27.1068 27.3125 26.7943 27.1719 26.5234 27.0312C26.2578 26.8854 26.0339 26.724 25.8516 26.5469C25.6745 26.3646 25.5391 26.1589 25.4453 25.9297C25.3568 25.7005 25.3125 25.4323 25.3125 25.125C25.3125 24.75 25.3984 24.4193 25.5703 24.1328C25.7422 23.8411 25.9714 23.599 26.2578 23.4062C26.5443 23.2083 26.8698 23.0599 27.2344 22.9609C27.6042 22.862 27.9844 22.8125 28.375 22.8125C29.0677 22.8125 29.6875 22.9323 30.2344 23.1719V24.4688C29.6458 24.0833 28.9688 23.8906 28.2031 23.8906C27.9635 23.8906 27.7474 23.9193 27.5547 23.9766C27.362 24.0286 27.1953 24.1042 27.0547 24.2031C26.9193 24.3021 26.8125 24.4219 26.7344 24.5625C26.6615 24.6979 26.625 24.849 26.625 25.0156C26.625 25.224 26.6615 25.3984 26.7344 25.5391C26.8125 25.6797 26.9245 25.8047 27.0703 25.9141C27.2161 26.0234 27.3932 26.1224 27.6016 26.2109C27.8099 26.2995 28.0469 26.3958 28.3125 26.5C28.6667 26.6354 28.9844 26.776 29.2656 26.9219C29.5469 27.0625 29.7865 27.224 29.9844 27.4062C30.1823 27.5833 30.3333 27.7891 30.4375 28.0234C30.5469 28.2578 30.6016 28.5365 30.6016 28.8594C30.6016 29.2552 30.513 29.599 30.3359 29.8906C30.1641 30.1823 29.9323 30.4245 29.6406 30.6172C29.349 30.8099 29.013 30.9531 28.6328 31.0469C28.2526 31.1406 27.8542 31.1875 27.4375 31.1875C26.6146 31.1875 25.901 31.0286 25.2969 30.7109ZM39.0078 27.3203H33.3594C33.3802 28.2109 33.6198 28.8984 34.0781 29.3828C34.5365 29.8672 35.1667 30.1094 35.9688 30.1094C36.8698 30.1094 37.6979 29.8125 38.4531 29.2188V30.4219C37.75 30.9323 36.8203 31.1875 35.6641 31.1875C34.5339 31.1875 33.6458 30.8255 33 30.1016C32.3542 29.3724 32.0312 28.349 32.0312 27.0312C32.0312 25.7865 32.3828 24.7734 33.0859 23.9922C33.7943 23.2057 34.6719 22.8125 35.7188 22.8125C36.7656 22.8125 37.5755 23.151 38.1484 23.8281C38.7214 24.5052 39.0078 25.4453 39.0078 26.6484V27.3203ZM37.6953 26.2344C37.6901 25.4948 37.5104 24.9193 37.1562 24.5078C36.8073 24.0964 36.3203 23.8906 35.6953 23.8906C35.0911 23.8906 34.5781 24.1068 34.1562 24.5391C33.7344 24.9714 33.474 25.5365 33.375 26.2344H37.6953ZM44.6641 30.9219C44.362 31.0885 43.9635 31.1719 43.4688 31.1719C42.0677 31.1719 41.3672 30.3906 41.3672 28.8281V24.0938H39.9922V23H41.3672V21.0469L42.6484 20.6328V23H44.6641V24.0938H42.6484V28.6016C42.6484 29.138 42.7396 29.5208 42.9219 29.75C43.1042 29.9792 43.4062 30.0938 43.8281 30.0938C44.151 30.0938 44.4297 30.0052 44.6641 29.8281V30.9219Z" fill="white"/>
</svg>
