<svg width="56" height="55" viewBox="0 0 56 55" fill="none" xmlns="http://www.w3.org/2000/svg">
<path d="M27.5 55C42.6878 55 55 42.6878 55 27.5C55 12.3122 42.6878 0 27.5 0C12.3122 0 0 12.3122 0 27.5C0 42.6878 12.3122 55 27.5 55Z" fill="#5D19FC"/>
<path d="M4.00299 32.2969V30.75C4.18007 30.9062 4.39101 31.0469 4.6358 31.1719C4.8858 31.2969 5.14622 31.4036 5.41705 31.4922C5.69309 31.5755 5.96914 31.6406 6.24518 31.6875C6.52122 31.7344 6.77643 31.7578 7.0108 31.7578C7.81809 31.7578 8.41966 31.6094 8.81549 31.3125C9.21653 31.0104 9.41705 30.5781 9.41705 30.0156C9.41705 29.7135 9.34934 29.4505 9.21393 29.2266C9.08372 29.0026 8.90143 28.7995 8.66705 28.6172C8.43268 28.4297 8.15403 28.2526 7.83112 28.0859C7.51341 27.9141 7.16966 27.7344 6.79987 27.5469C6.40924 27.349 6.04466 27.1484 5.70612 26.9453C5.36757 26.7422 5.0733 26.5182 4.8233 26.2734C4.5733 26.0286 4.37539 25.7526 4.22955 25.4453C4.08893 25.1328 4.01862 24.7682 4.01862 24.3516C4.01862 23.8411 4.13059 23.3984 4.35455 23.0234C4.57851 22.6432 4.87278 22.3307 5.23737 22.0859C5.60195 21.8411 6.01601 21.6589 6.47955 21.5391C6.9483 21.4193 7.42487 21.3594 7.90924 21.3594C9.01341 21.3594 9.81809 21.4922 10.3233 21.7578V23.2344C9.66184 22.776 8.81289 22.5469 7.77643 22.5469C7.48997 22.5469 7.20351 22.5781 6.91705 22.6406C6.63059 22.6979 6.37539 22.7943 6.15143 22.9297C5.92747 23.0651 5.74518 23.2396 5.60455 23.4531C5.46393 23.6667 5.39362 23.9271 5.39362 24.2344C5.39362 24.5208 5.4457 24.7682 5.54987 24.9766C5.65924 25.1849 5.81809 25.375 6.02643 25.5469C6.23476 25.7188 6.48737 25.8854 6.78424 26.0469C7.08632 26.2083 7.43268 26.3854 7.8233 26.5781C8.22434 26.776 8.60455 26.9844 8.96393 27.2031C9.3233 27.4219 9.63841 27.6641 9.90924 27.9297C10.1801 28.1953 10.3936 28.4896 10.5499 28.8125C10.7113 29.1354 10.7921 29.5052 10.7921 29.9219C10.7921 30.474 10.6827 30.9427 10.4639 31.3281C10.2504 31.7083 9.95872 32.0182 9.58893 32.2578C9.22434 32.4974 8.80247 32.6693 8.3233 32.7734C7.84414 32.8828 7.33893 32.9375 6.80768 32.9375C6.63059 32.9375 6.41184 32.9219 6.15143 32.8906C5.89101 32.8646 5.62539 32.8229 5.35455 32.7656C5.08372 32.7135 4.82591 32.6484 4.58112 32.5703C4.34153 32.487 4.14882 32.3958 4.00299 32.2969ZM13.5108 22.7188C13.2816 22.7188 13.0863 22.6406 12.9249 22.4844C12.7634 22.3281 12.6827 22.1302 12.6827 21.8906C12.6827 21.651 12.7634 21.4531 12.9249 21.2969C13.0863 21.1354 13.2816 21.0547 13.5108 21.0547C13.7452 21.0547 13.9431 21.1354 14.1046 21.2969C14.2712 21.4531 14.3546 21.651 14.3546 21.8906C14.3546 22.1198 14.2712 22.3151 14.1046 22.4766C13.9431 22.638 13.7452 22.7188 13.5108 22.7188ZM14.1358 32.75H12.8546V24.75H14.1358V32.75ZM23.5577 32.1094C23.5577 35.0469 22.1514 36.5156 19.3389 36.5156C18.3493 36.5156 17.4848 36.3281 16.7452 35.9531V34.6719C17.6462 35.1719 18.5056 35.4219 19.3233 35.4219C21.2921 35.4219 22.2764 34.375 22.2764 32.2812V31.4062H22.2452C21.6358 32.4271 20.7191 32.9375 19.4952 32.9375C18.5004 32.9375 17.6983 32.5833 17.0889 31.875C16.4848 31.1615 16.1827 30.2057 16.1827 29.0078C16.1827 27.6484 16.5082 26.5677 17.1592 25.7656C17.8155 24.9635 18.7113 24.5625 19.8467 24.5625C20.9249 24.5625 21.7243 24.9948 22.2452 25.8594H22.2764V24.75H23.5577V32.1094ZM22.2764 29.1328V27.9531C22.2764 27.3177 22.0603 26.7734 21.628 26.3203C21.2009 25.8672 20.6671 25.6406 20.0264 25.6406C19.2348 25.6406 18.615 25.9297 18.1671 26.5078C17.7191 27.0807 17.4952 27.8854 17.4952 28.9219C17.4952 29.8125 17.7087 30.526 18.1358 31.0625C18.5681 31.5938 19.1384 31.8594 19.8467 31.8594C20.5655 31.8594 21.1488 31.6042 21.5967 31.0938C22.0499 30.5833 22.2764 29.9297 22.2764 29.1328ZM32.7921 32.75H31.5108V28.1875C31.5108 26.4896 30.891 25.6406 29.6514 25.6406C29.0108 25.6406 28.4796 25.8828 28.0577 26.3672C27.641 26.8464 27.4327 27.4531 27.4327 28.1875V32.75H26.1514V24.75H27.4327V26.0781H27.4639C28.0681 25.0677 28.9431 24.5625 30.0889 24.5625C30.9639 24.5625 31.6332 24.8464 32.0967 25.4141C32.5603 25.9766 32.7921 26.7917 32.7921 27.8594V32.75ZM41.6827 32.75H40.4014V31.4844H40.3702C39.8389 32.4531 39.016 32.9375 37.9014 32.9375C35.9952 32.9375 35.0421 31.8021 35.0421 29.5312V24.75H36.3155V29.3281C36.3155 31.0156 36.9613 31.8594 38.253 31.8594C38.878 31.8594 39.391 31.6302 39.7921 31.1719C40.1983 30.7083 40.4014 30.1042 40.4014 29.3594V24.75H41.6827V32.75ZM45.5889 31.5938H45.5577V36.4297H44.2764V24.75H45.5577V26.1562H45.5889C46.2191 25.0938 47.141 24.5625 48.3546 24.5625C49.3858 24.5625 50.1905 24.9219 50.7686 25.6406C51.3467 26.3542 51.6358 27.3125 51.6358 28.5156C51.6358 29.8542 51.3103 30.9271 50.6592 31.7344C50.0082 32.5365 49.1176 32.9375 47.9874 32.9375C46.9509 32.9375 46.1514 32.4896 45.5889 31.5938ZM45.5577 28.3672V29.4844C45.5577 30.1458 45.7712 30.7083 46.1983 31.1719C46.6306 31.6302 47.1775 31.8594 47.8389 31.8594C48.615 31.8594 49.2217 31.5625 49.6592 30.9688C50.1019 30.375 50.3233 29.5495 50.3233 28.4922C50.3233 27.6016 50.1176 26.9036 49.7061 26.3984C49.2947 25.8932 48.7374 25.6406 48.0342 25.6406C47.2894 25.6406 46.6905 25.901 46.2374 26.4219C45.7842 26.9375 45.5577 27.5859 45.5577 28.3672Z" fill="white"/>
</svg>
