<svg width="663" height="565" viewBox="0 0 663 565" fill="none" xmlns="http://www.w3.org/2000/svg">
<g opacity="0.9" filter="url(#filter0_d_3_316)">
<path d="M77.4104 390.638C116.207 493.754 131.6 308.096 217.071 363.284C302.542 418.471 365.38 459.329 441.371 359.26C517.362 259.19 455.542 165.203 455.542 165.203L195.013 26.2412C195.013 26.2412 38.6136 287.522 77.4104 390.638Z" fill="#6B2BFF"/>
</g>
<g opacity="0.2" filter="url(#filter1_f_3_316)">
<path d="M48.5521 378.284C87.3488 481.4 179.052 495 217.071 378.284C302.542 433.471 365.38 474.329 441.371 374.26C517.362 274.19 455.542 180.204 455.542 180.204L195.013 41.2412C195.013 41.2412 9.7553 275.168 48.5521 378.284Z" fill="#6B2BFF" fill-opacity="0.5"/>
</g>
<g opacity="0.9" filter="url(#filter2_d_3_316)">
<path d="M167.669 230.092C136.62 335.735 260.568 196.797 295.601 292.254C330.634 387.712 356.219 458.118 477.062 423.944C597.905 389.77 605.086 277.567 605.086 277.567L480.702 9.95346C480.702 9.95346 198.719 124.449 167.669 230.092Z" fill="#6B2BFF"/>
</g>
<g filter="url(#filter3_d_3_316)">
<path d="M356.552 476C389.689 476 416.552 449.137 416.552 416C416.552 382.863 389.689 356 356.552 356C323.415 356 296.552 382.863 296.552 416C296.552 449.137 323.415 476 356.552 476Z" fill="white"/>
</g>
<path opacity="0.1" d="M351.552 484C384.689 484 411.552 457.137 411.552 424C411.552 390.863 384.689 364 351.552 364C318.415 364 291.552 390.863 291.552 424C291.552 457.137 318.415 484 351.552 484Z" fill="#B95BE0"/>
<path d="M356.552 476C389.689 476 416.552 449.137 416.552 416C416.552 382.863 389.689 356 356.552 356C323.415 356 296.552 382.863 296.552 416C296.552 449.137 323.415 476 356.552 476Z" fill="white"/>
<g filter="url(#filter4_d_3_316)">
<path d="M328.151 394.875C328.151 397.074 327.687 399.022 326.759 400.717C325.84 402.403 324.523 403.704 322.808 404.623C321.092 405.541 319.115 406 316.874 406H307.686V384.294H316.678C324.327 384.294 328.151 387.821 328.151 394.875ZM321.203 394.935C321.203 393.875 320.987 392.922 320.553 392.074C320.129 391.227 319.518 390.571 318.721 390.106C317.924 389.642 316.985 389.41 315.906 389.41H314.225V400.884H316.057C317.621 400.884 318.867 400.349 319.796 399.279C320.734 398.2 321.203 396.751 321.203 394.935ZM347.859 397.978C347.859 400.591 347.067 402.645 345.483 404.138C343.909 405.632 341.704 406.378 338.868 406.378C336.053 406.378 333.858 405.652 332.284 404.199C330.719 402.736 329.937 400.722 329.937 398.159C329.937 396.514 330.306 395.086 331.042 393.875C331.779 392.665 332.828 391.736 334.191 391.09C335.553 390.444 337.122 390.122 338.898 390.122C340.735 390.122 342.324 390.46 343.666 391.136C345.019 391.812 346.053 392.75 346.769 393.951C347.496 395.152 347.859 396.494 347.859 397.978ZM341.32 398.008C341.32 395.899 340.513 394.844 338.898 394.844C337.284 394.844 336.476 395.949 336.476 398.159C336.476 400.49 337.294 401.656 338.929 401.656C340.523 401.656 341.32 400.44 341.32 398.008ZM363.041 405.561C362.628 405.803 361.977 406 361.089 406.151C360.201 406.303 359.176 406.378 358.016 406.378C356.381 406.378 354.918 406.05 353.626 405.395C352.345 404.729 351.351 403.8 350.644 402.609C349.938 401.419 349.585 400.082 349.585 398.598C349.585 396.822 349.958 395.303 350.705 394.042C351.462 392.771 352.536 391.802 353.929 391.136C355.322 390.46 356.936 390.122 358.773 390.122C359.782 390.122 360.685 390.187 361.482 390.318C362.29 390.45 362.809 390.601 363.041 390.772V395.798C362.718 395.546 362.254 395.324 361.649 395.132C361.043 394.94 360.483 394.844 359.969 394.844C358.707 394.844 357.749 395.147 357.093 395.752C356.447 396.348 356.124 397.19 356.124 398.28C356.124 399.35 356.442 400.182 357.078 400.778C357.723 401.363 358.606 401.656 359.726 401.656C360.927 401.656 362.032 401.368 363.041 400.793V405.561ZM376.528 405.788C376.236 405.929 375.756 406.061 375.09 406.182C374.424 406.313 373.622 406.378 372.683 406.378C370.887 406.378 369.48 405.884 368.46 404.895C367.451 403.906 366.947 402.498 366.947 400.672V394.965H364.51V390.5H366.947V387.458L373.304 385.702V390.5H376.528V394.965H373.304V399.612C373.304 400.975 373.844 401.656 374.924 401.656C375.428 401.656 375.963 401.545 376.528 401.323V405.788ZM395.782 397.978C395.782 400.591 394.99 402.645 393.406 404.138C391.831 405.632 389.627 406.378 386.791 406.378C383.975 406.378 381.781 405.652 380.206 404.199C378.642 402.736 377.86 400.722 377.86 398.159C377.86 396.514 378.229 395.086 378.965 393.875C379.702 392.665 380.751 391.736 382.114 391.09C383.476 390.444 385.045 390.122 386.821 390.122C388.658 390.122 390.247 390.46 391.589 391.136C392.941 391.812 393.976 392.75 394.692 393.951C395.419 395.152 395.782 396.494 395.782 397.978ZM389.243 398.008C389.243 395.899 388.436 394.844 386.821 394.844C385.207 394.844 384.399 395.949 384.399 398.159C384.399 400.49 385.217 401.656 386.851 401.656C388.446 401.656 389.243 400.44 389.243 398.008ZM409.844 396.025C409.602 395.914 409.274 395.813 408.86 395.722C408.446 395.631 408.103 395.586 407.831 395.586C405.702 395.586 404.637 396.817 404.637 399.279V406H398.189V390.5H404.637V393.225H404.698C405.091 392.246 405.651 391.504 406.378 391C407.104 390.485 407.952 390.228 408.921 390.228C409.274 390.228 409.582 390.288 409.844 390.409V396.025Z" fill="#5D19FC"/>
</g>
<g filter="url(#filter5_d_3_316)">
<path d="M328.318 442.219C328.318 443.708 327.917 445.005 327.115 446.109C326.323 447.214 325.208 448.036 323.771 448.578C322.333 449.12 320.604 449.391 318.583 449.391C316.24 449.391 314.094 448.995 312.146 448.203V442.062C313.083 442.75 314.12 443.307 315.255 443.734C316.391 444.151 317.448 444.359 318.427 444.359C319.167 444.359 319.74 444.229 320.146 443.969C320.552 443.698 320.755 443.307 320.755 442.797C320.755 442.432 320.651 442.115 320.443 441.844C320.245 441.562 319.938 441.302 319.521 441.062C319.115 440.823 318.354 440.495 317.24 440.078C313.635 438.693 311.833 436.453 311.833 433.359C311.833 431.193 312.656 429.464 314.302 428.172C315.948 426.87 318.156 426.219 320.927 426.219C321.708 426.219 322.427 426.25 323.083 426.312C323.74 426.375 324.333 426.453 324.865 426.547C325.406 426.641 326.161 426.818 327.13 427.078V432.781C325.245 431.75 323.391 431.234 321.568 431.234C320.818 431.234 320.214 431.375 319.755 431.656C319.297 431.938 319.068 432.323 319.068 432.812C319.068 433.281 319.25 433.672 319.615 433.984C319.99 434.286 320.766 434.682 321.943 435.172C324.266 436.109 325.906 437.135 326.865 438.25C327.833 439.365 328.318 440.688 328.318 442.219ZM339.333 449V446.562H339.271C338.208 448.448 336.583 449.391 334.396 449.391C332.885 449.391 331.703 448.943 330.849 448.047C329.995 447.151 329.568 445.953 329.568 444.453C329.568 441.307 331.5 439.484 335.365 438.984L339.333 438.469C339.333 437.948 339.099 437.521 338.63 437.188C338.161 436.854 337.531 436.688 336.74 436.688C334.948 436.688 333.057 437.198 331.068 438.219V433.891C331.932 433.516 333.016 433.208 334.318 432.969C335.62 432.729 336.734 432.609 337.661 432.609C340.38 432.609 342.349 433.193 343.568 434.359C344.797 435.516 345.411 437.453 345.411 440.172V449H339.333ZM335.396 443.562C335.396 444 335.531 444.359 335.802 444.641C336.083 444.922 336.479 445.062 336.99 445.062C337.688 445.062 338.25 444.802 338.677 444.281C339.115 443.76 339.333 443.094 339.333 442.281V441.672L337.083 441.984C335.958 442.172 335.396 442.698 335.396 443.562ZM358.74 449V439.875C358.74 438.281 358.13 437.484 356.911 437.484C356.318 437.484 355.865 437.714 355.552 438.172C355.24 438.62 355.083 439.198 355.083 439.906V449H348.427V425.312H355.083V435.172H355.146C355.719 434.349 356.411 433.719 357.224 433.281C358.047 432.833 358.927 432.609 359.865 432.609C361.594 432.609 362.911 433.167 363.818 434.281C364.724 435.385 365.177 437.016 365.177 439.172V449H358.74ZM377.052 449V446.562H376.99C375.927 448.448 374.302 449.391 372.115 449.391C370.604 449.391 369.422 448.943 368.568 448.047C367.714 447.151 367.286 445.953 367.286 444.453C367.286 441.307 369.219 439.484 373.083 438.984L377.052 438.469C377.052 437.948 376.818 437.521 376.349 437.188C375.88 436.854 375.25 436.688 374.458 436.688C372.667 436.688 370.776 437.198 368.786 438.219V433.891C369.651 433.516 370.734 433.208 372.036 432.969C373.339 432.729 374.453 432.609 375.38 432.609C378.099 432.609 380.068 433.193 381.286 434.359C382.516 435.516 383.13 437.453 383.13 440.172V449H377.052ZM373.115 443.562C373.115 444 373.25 444.359 373.521 444.641C373.802 444.922 374.198 445.062 374.708 445.062C375.406 445.062 375.969 444.802 376.396 444.281C376.833 443.76 377.052 443.094 377.052 442.281V441.672L374.802 441.984C373.677 442.172 373.115 442.698 373.115 443.562ZM404.193 440.516C404.193 442.266 403.901 443.818 403.318 445.172C402.745 446.516 401.927 447.557 400.865 448.297C399.802 449.026 398.599 449.391 397.255 449.391C396.224 449.391 395.339 449.203 394.599 448.828C393.87 448.443 393.292 447.948 392.865 447.344H392.802V449H386.146V425.312H392.802V435.172H392.865C393.385 434.38 394.089 433.755 394.974 433.297C395.87 432.839 396.854 432.609 397.927 432.609C399.948 432.609 401.495 433.281 402.568 434.625C403.651 435.969 404.193 437.932 404.193 440.516ZM397.443 440.719C397.443 439.646 397.234 438.839 396.818 438.297C396.411 437.755 395.823 437.484 395.052 437.484C394.375 437.484 393.807 437.771 393.349 438.344C392.901 438.906 392.677 439.641 392.677 440.547V441.516C392.677 442.432 392.88 443.161 393.286 443.703C393.693 444.245 394.24 444.516 394.927 444.516C395.729 444.516 396.349 444.188 396.786 443.531C397.224 442.865 397.443 441.927 397.443 440.719Z" fill="#5D19FC"/>
</g>
<path d="M341.552 423C344.866 423 347.552 420.314 347.552 417C347.552 413.686 344.866 411 341.552 411C338.238 411 335.552 413.686 335.552 417C335.552 420.314 338.238 423 341.552 423Z" fill="#5D19FC"/>
<path d="M383.552 423C386.866 423 389.552 420.314 389.552 417C389.552 413.686 386.866 411 383.552 411C380.238 411 377.552 413.686 377.552 417C377.552 420.314 380.238 423 383.552 423Z" fill="#5D19FC"/>
<defs>
<filter id="filter0_d_3_316" x="67.225" y="26.2412" width="416.03" height="404.175" filterUnits="userSpaceOnUse" color-interpolation-filters="sRGB">
<feFlood flood-opacity="0" result="BackgroundImageFix"/>
<feColorMatrix in="SourceAlpha" type="matrix" values="0 0 0 0 0 0 0 0 0 0 0 0 0 0 0 0 0 0 127 0" result="hardAlpha"/>
<feOffset dy="4"/>
<feGaussianBlur stdDeviation="2"/>
<feComposite in2="hardAlpha" operator="out"/>
<feColorMatrix type="matrix" values="0 0 0 0 0 0 0 0 0 0 0 0 0 0 0 0 0 0 0.25 0"/>
<feBlend mode="normal" in2="BackgroundImageFix" result="effect1_dropShadow_3_316"/>
<feBlend mode="normal" in="SourceGraphic" in2="effect1_dropShadow_3_316" result="shape"/>
</filter>
<filter id="filter1_f_3_316" x="39.2103" y="37.2412" width="444.045" height="427.558" filterUnits="userSpaceOnUse" color-interpolation-filters="sRGB">
<feFlood flood-opacity="0" result="BackgroundImageFix"/>
<feBlend mode="normal" in="SourceGraphic" in2="BackgroundImageFix" result="shape"/>
<feGaussianBlur stdDeviation="2" result="effect1_foregroundBlur_3_316"/>
</filter>
<filter id="filter2_d_3_316" x="158.725" y="9.95349" width="450.361" height="430.75" filterUnits="userSpaceOnUse" color-interpolation-filters="sRGB">
<feFlood flood-opacity="0" result="BackgroundImageFix"/>
<feColorMatrix in="SourceAlpha" type="matrix" values="0 0 0 0 0 0 0 0 0 0 0 0 0 0 0 0 0 0 127 0" result="hardAlpha"/>
<feOffset dy="4"/>
<feGaussianBlur stdDeviation="2"/>
<feComposite in2="hardAlpha" operator="out"/>
<feColorMatrix type="matrix" values="0 0 0 0 0 0 0 0 0 0 0 0 0 0 0 0 0 0 0.25 0"/>
<feBlend mode="normal" in2="BackgroundImageFix" result="effect1_dropShadow_3_316"/>
<feBlend mode="normal" in="SourceGraphic" in2="effect1_dropShadow_3_316" result="shape"/>
</filter>
<filter id="filter3_d_3_316" x="263.552" y="326" width="186" height="186" filterUnits="userSpaceOnUse" color-interpolation-filters="sRGB">
<feFlood flood-opacity="0" result="BackgroundImageFix"/>
<feColorMatrix in="SourceAlpha" type="matrix" values="0 0 0 0 0 0 0 0 0 0 0 0 0 0 0 0 0 0 127 0" result="hardAlpha"/>
<feOffset dy="3"/>
<feGaussianBlur stdDeviation="16.5"/>
<feColorMatrix type="matrix" values="0 0 0 0 0 0 0 0 0 0 0 0 0 0 0 0 0 0 0.161 0"/>
<feBlend mode="normal" in2="BackgroundImageFix" result="effect1_dropShadow_3_316"/>
<feBlend mode="normal" in="SourceGraphic" in2="effect1_dropShadow_3_316" result="shape"/>
</filter>
<filter id="filter4_d_3_316" x="290.686" y="370.294" width="136.158" height="56.0845" filterUnits="userSpaceOnUse" color-interpolation-filters="sRGB">
<feFlood flood-opacity="0" result="BackgroundImageFix"/>
<feColorMatrix in="SourceAlpha" type="matrix" values="0 0 0 0 0 0 0 0 0 0 0 0 0 0 0 0 0 0 127 0" result="hardAlpha"/>
<feOffset dy="3"/>
<feGaussianBlur stdDeviation="8.5"/>
<feColorMatrix type="matrix" values="0 0 0 0 0 0 0 0 0 0 0 0 0 0 0 0 0 0 0.161 0"/>
<feBlend mode="normal" in2="BackgroundImageFix" result="effect1_dropShadow_3_316"/>
<feBlend mode="normal" in="SourceGraphic" in2="effect1_dropShadow_3_316" result="shape"/>
</filter>
<filter id="filter5_d_3_316" x="294.833" y="411.312" width="126.359" height="58.0781" filterUnits="userSpaceOnUse" color-interpolation-filters="sRGB">
<feFlood flood-opacity="0" result="BackgroundImageFix"/>
<feColorMatrix in="SourceAlpha" type="matrix" values="0 0 0 0 0 0 0 0 0 0 0 0 0 0 0 0 0 0 127 0" result="hardAlpha"/>
<feOffset dy="3"/>
<feGaussianBlur stdDeviation="8.5"/>
<feColorMatrix type="matrix" values="0 0 0 0 0 0 0 0 0 0 0 0 0 0 0 0 0 0 0.161 0"/>
<feBlend mode="normal" in2="BackgroundImageFix" result="effect1_dropShadow_3_316"/>
<feBlend mode="normal" in="SourceGraphic" in2="effect1_dropShadow_3_316" result="shape"/>
</filter>
</defs>
</svg>
